<svg width="1440" height="830" viewBox="0 0 1440 830" fill="none" xmlns="http://www.w3.org/2000/svg">
<circle cx="277.5" cy="176.5" r="112.5" fill="#474B73" fill-opacity="0.05"/>
<path d="M926.404 833.207C887.081 909.866 793.058 940.132 716.399 900.808C639.741 861.484 609.474 767.462 648.798 690.803C688.122 614.144 782.144 583.878 858.803 623.202C935.462 662.526 965.728 756.548 926.404 833.207Z" fill="#474B73" fill-opacity="0.05"/>
<path d="M1459.81 281.207C1420.48 357.866 1326.46 388.132 1249.8 348.808C1173.14 309.484 1142.88 215.462 1182.2 138.803C1221.53 62.1443 1315.55 31.8782 1392.21 71.2019C1468.87 110.526 1499.13 204.548 1459.81 281.207Z" fill="#FCC332" fill-opacity="0.2"/>
<path d="M220.335 398.421C173.018 490.661 59.8845 527.08 -32.3563 479.763C-124.597 432.446 -161.015 319.312 -113.699 227.071C-66.3817 134.83 46.7522 98.4122 138.993 145.729C231.234 193.046 267.652 306.18 220.335 398.421Z" fill="#474B73" fill-opacity="0.05"/>
<circle cx="1133.5" cy="191.5" r="112.5" fill="#474B73" fill-opacity="0.2"/>
<circle cx="787.5" cy="762.5" r="85.5" fill="#FCC332" fill-opacity="0.3"/>
</svg>
