<svg width="1440" height="1401" viewBox="0 0 1440 1401" fill="none" 
    xmlns="http://www.w3.org/2000/svg">
    <g opacity="0.2">
        <path d="M646.886 863.099H179.474V1387.97H646.886V863.099Z" fill="#B2B0BE"/>
        <path d="M1248.54 492.372H1249.69V490.605L1249.84 490.31L1249.69 490.114V487.168H1209.14V492.274H1210.06L1227.39 518.291L1211.28 542.935H1209.75V548.04H1249.23V542.935H1248.09L1231.67 518.291L1248.54 492.372ZM1214.26 492.372H1244.27L1229.38 515.15L1214.26 492.372ZM1243.66 543.131H1215.48L1229.45 521.728L1243.66 543.131Z" fill="#B2B0BE"/>
        <path d="M1248.54 548.433H1249.69V546.666L1249.84 546.371L1249.69 546.175V543.229H1209.14V548.335H1210.06L1227.39 574.353L1211.28 598.996H1209.75V604.101H1249.23V598.996H1248.09L1231.67 574.353L1248.54 548.433ZM1214.26 548.433H1244.27L1229.38 571.211L1214.26 548.433ZM1243.66 599.094H1215.48L1229.45 577.691L1243.66 599.094Z" fill="#B2B0BE"/>
        <path d="M1248.54 604.395H1249.69V602.628L1249.84 602.334L1249.69 602.137V599.192H1209.14V604.297H1210.06L1227.39 630.315L1211.28 654.958H1209.75V660.063H1249.23V655.154H1248.09L1231.67 630.511L1248.54 604.395ZM1214.26 604.395H1244.27L1229.38 627.173L1214.26 604.395ZM1243.66 655.154H1215.48L1229.45 633.751L1243.66 655.154Z" fill="#B2B0BE"/>
        <path d="M1248.54 660.456H1249.69V658.689L1249.84 658.394L1249.69 658.198V655.252H1209.14V660.358H1210.06L1227.39 686.375L1211.28 711.018H1209.75V716.124H1249.23V711.117H1248.09L1231.67 686.474L1248.54 660.456ZM1214.26 660.456H1244.27L1229.38 683.234L1214.26 660.456ZM1243.66 711.117H1215.48L1229.45 689.714L1243.66 711.117Z" fill="#B2B0BE"/>
        <path d="M1248.54 716.419H1249.69V714.652L1249.84 714.357L1249.69 714.161V711.215H1209.14V716.321H1210.06L1227.39 742.338L1211.28 766.981H1209.75V772.087H1249.23V766.981H1248.09L1231.67 742.338L1248.54 716.419ZM1214.26 716.419H1244.27L1229.38 739.197L1214.26 716.419ZM1243.66 767.178H1215.48L1229.45 745.775L1243.66 767.178Z" fill="#B2B0BE"/>
        <path d="M1248.54 772.479H1249.69V770.712L1249.84 770.418L1249.69 770.221V767.276H1209.14V772.381H1210.06L1227.39 798.399L1211.28 823.042H1209.75V828.147H1249.23V823.042H1248.09L1231.67 798.399L1248.54 772.479ZM1214.26 772.479H1244.27L1229.38 795.257L1214.26 772.479ZM1243.66 823.14H1215.48L1229.45 801.737L1243.66 823.14Z" fill="#B2B0BE"/>
        <path d="M1248.54 828.442H1249.69V826.674L1249.84 826.38L1249.69 826.183V823.238H1209.14V828.343H1210.06L1227.39 854.361L1211.28 879.004H1209.75V884.11H1249.23V879.004H1248.09L1231.67 854.361L1248.54 828.442ZM1214.26 828.442H1244.27L1229.38 851.219L1214.26 828.442ZM1243.66 879.201H1215.48L1229.45 857.797L1243.66 879.201Z" fill="#B2B0BE"/>
        <path d="M1248.54 884.503H1249.69V882.735L1249.84 882.441L1249.69 882.244V879.299H1209.14V884.404H1210.06L1227.39 910.422L1211.28 935.065H1209.75V940.171H1249.23V935.065H1248.09L1231.67 910.422L1248.54 884.503ZM1214.26 884.503H1244.27L1229.38 907.28L1214.26 884.503ZM1243.66 935.163H1215.48L1229.45 913.76L1243.66 935.163Z" fill="#B2B0BE"/>
        <path d="M1248.54 940.465H1249.69V938.698L1249.84 938.403L1249.69 938.207V935.262H1209.14V940.367H1210.06L1227.39 966.385L1211.28 991.028H1209.75V996.133H1249.23V991.028H1248.09L1231.67 966.385L1248.54 940.465ZM1214.26 940.465H1244.27L1229.38 963.243L1214.26 940.465ZM1243.66 991.224H1215.48L1229.45 969.821L1243.66 991.224Z" fill="#B2B0BE"/>
        <path d="M1248.54 996.526H1249.69V994.759L1249.84 994.464L1249.69 994.268V991.323H1209.14V996.428H1210.06L1227.39 1022.45L1211.28 1047.09H1209.75V1052.19H1249.23V1047.09H1248.09L1231.67 1022.45L1248.54 996.526ZM1214.26 996.526H1244.27L1229.38 1019.3L1214.26 996.526ZM1243.66 1047.19H1215.48L1229.45 1025.78L1243.66 1047.19Z" fill="#B2B0BE"/>
        <path d="M1248.54 1052.49H1249.69V1050.72L1249.84 1050.43L1249.69 1050.23V1047.28H1209.14V1052.39H1210.06L1227.39 1078.41L1211.28 1103.05H1209.75V1108.16H1249.23V1103.05H1248.09L1231.67 1078.41L1248.54 1052.49ZM1214.26 1052.49H1244.27L1229.38 1075.27L1214.26 1052.49ZM1243.66 1103.25H1215.48L1229.45 1081.84L1243.66 1103.25Z" fill="#B2B0BE"/>
        <path d="M1248.54 1108.55H1249.69V1106.78L1249.84 1106.49L1249.69 1106.29V1103.35H1209.14V1108.45H1210.06L1227.39 1134.47L1211.28 1159.11H1209.75V1164.22H1249.23V1159.11H1248.09L1231.67 1134.47L1248.54 1108.55ZM1214.26 1108.55H1244.27L1229.38 1131.33L1214.26 1108.55ZM1243.66 1159.21H1215.48L1229.45 1137.81L1243.66 1159.21Z" fill="#B2B0BE"/>
        <path d="M1248.54 1164.51H1249.69V1162.74L1249.84 1162.45L1249.69 1162.25V1159.31H1209.14V1164.41H1210.06L1227.39 1190.43L1211.28 1215.07H1209.75V1220.18H1249.23V1215.07H1248.09L1231.67 1190.43L1248.54 1164.51ZM1214.26 1164.51H1244.27L1229.38 1187.29L1214.26 1164.51ZM1243.66 1215.27H1215.48L1229.45 1193.87L1243.66 1215.27Z" fill="#B2B0BE"/>
        <path d="M1248.54 1220.57H1249.69V1218.81L1249.84 1218.51L1249.69 1218.31V1215.37H1209.14V1220.47H1210.06L1227.39 1246.49L1211.28 1271.14H1209.75V1276.24H1249.23V1271.14H1248.09L1231.67 1246.49L1248.54 1220.57ZM1214.26 1220.57H1244.27L1229.38 1243.35L1214.26 1220.57ZM1243.66 1271.23H1215.48L1229.45 1249.83L1243.66 1271.23Z" fill="#B2B0BE"/>
        <path d="M1069.32 364.542H1071.61V359.829C1071.61 354.724 1074.82 350.6 1078.79 350.6C1082.76 350.6 1085.97 354.724 1085.97 359.829V364.542H1088.26V359.829C1088.26 353.153 1084.06 347.655 1078.79 347.655C1073.6 347.655 1069.32 353.055 1069.32 359.829V364.542Z" fill="#B2B0BE"/>
        <path d="M1071.54 330.964V260.471C1071.54 254.973 1074.97 250.457 1079.17 250.457C1083.37 250.457 1086.81 254.973 1086.81 260.471V330.964C1086.81 336.462 1083.37 340.979 1079.17 340.979C1074.97 340.979 1071.54 336.462 1071.54 330.964ZM1073.67 260.471V330.964C1073.67 334.892 1076.12 338.132 1079.1 338.132C1082.07 338.132 1084.52 334.892 1084.52 330.964V260.471C1084.52 256.544 1082.07 253.304 1079.1 253.304C1076.12 253.304 1073.67 256.544 1073.67 260.471Z" fill="#B2B0BE"/>
        <path d="M1076.48 353.7H1081.21V328.271H1076.48V353.7Z" fill="#B2B0BE"/>
        <path d="M1075.35 269.798H1092.61C1094.67 269.798 1096.35 267.638 1096.35 264.988V193.022C1096.35 190.371 1094.67 188.211 1092.61 188.211H1075.35C1073.29 188.211 1071.61 190.371 1071.61 193.022V264.988C1071.61 267.638 1073.29 269.798 1075.35 269.798Z" fill="#B2B0BE"/>
        <path d="M1208.3 146.092H1250.07V1318.36H1208.3V146.092ZM1246.86 150.314H1211.66V1314.14H1246.86V150.314Z" fill="#B2B0BE"/>
        <path d="M1227.31 238.381L1210.9 263.024H1209.75V268.129H1249.23V263.024H1247.7L1231.59 238.381L1248.93 212.363H1249.84V207.258H1209.29V210.203L1209.14 210.4L1209.29 210.694V212.461H1210.44L1227.31 238.381ZM1229.53 235.141L1214.64 212.363H1244.65L1229.53 235.141ZM1229.45 241.621L1243.43 263.024H1215.25L1229.45 241.621Z" fill="#B2B0BE"/>
        <path d="M1227.31 294.344L1210.9 318.987H1209.75V324.092H1249.23V318.987H1247.7L1231.59 294.344L1248.93 268.326H1249.84V263.22H1209.29V266.166L1209.14 266.362L1209.29 266.657V268.424H1210.44L1227.31 294.344ZM1229.53 291.104L1214.64 268.326H1244.65L1229.53 291.104ZM1229.45 297.682L1243.43 319.085H1215.25L1229.45 297.682Z" fill="#B2B0BE"/>
        <path d="M1227.31 350.404L1210.9 375.047H1209.75V380.153H1249.23V375.047H1247.7L1231.59 350.404L1248.93 324.387H1249.84V319.281H1209.29V322.227L1209.14 322.423L1209.29 322.718V324.485H1210.44L1227.31 350.404ZM1229.53 347.164L1214.64 324.387H1244.65L1229.53 347.164ZM1229.45 353.644L1243.43 375.047H1215.25L1229.45 353.644Z" fill="#B2B0BE"/>
        <path d="M1227.31 406.367L1210.9 431.01H1209.75V436.115H1249.23V431.01H1247.7L1231.59 406.367L1248.93 380.349H1249.84V375.342H1209.29V378.287L1209.14 378.484L1209.29 378.778V380.545H1210.44L1227.31 406.367ZM1229.53 403.127L1214.64 380.349H1244.65L1229.53 403.127ZM1229.45 409.705L1243.43 431.108H1215.25L1229.45 409.705Z" fill="#B2B0BE"/>
        <path d="M1227.31 462.427L1210.9 487.07H1209.75V492.176H1249.23V487.07H1247.7L1231.59 462.427L1248.93 436.41H1249.84V431.304H1209.29V434.25L1209.14 434.446L1209.29 434.74V436.508H1210.44L1227.31 462.427ZM1229.53 459.187L1214.64 436.41H1244.65L1229.53 459.187ZM1229.45 465.667L1243.43 487.07H1215.25L1229.45 465.667Z" fill="#B2B0BE"/>
        <path d="M1244.65 17.8689H1233.04C1231.21 17.8689 1229.76 19.7343 1229.76 22.0906V146.092C1229.76 148.448 1231.21 150.313 1233.04 150.313H1244.65C1246.48 150.313 1247.93 148.448 1247.93 146.092V22.0906C1247.93 19.7343 1246.48 17.8689 1244.65 17.8689ZM1236.33 22.0906H1241.44C1243.27 22.0906 1244.73 23.9561 1244.73 26.3124V60.6753C1244.73 63.0316 1243.27 64.897 1241.44 64.897H1236.33C1234.49 64.897 1233.04 63.0316 1233.04 60.6753V26.3124C1233.04 23.9561 1234.49 22.0906 1236.33 22.0906ZM1236.33 69.7078H1241.44C1243.27 69.7078 1244.73 71.5733 1244.73 73.9296V94.2528C1244.73 96.6091 1243.27 98.4745 1241.44 98.4745H1236.33C1234.49 98.4745 1233.04 96.6091 1233.04 94.2528V73.9296C1233.04 71.5733 1234.49 69.7078 1236.33 69.7078ZM1241.37 146.092H1236.25C1234.42 146.092 1232.97 144.226 1232.97 141.87V107.507C1232.97 105.151 1234.42 103.285 1236.25 103.285H1241.37C1243.2 103.285 1244.65 105.151 1244.65 107.507V141.87C1244.65 144.226 1243.2 146.092 1241.37 146.092Z" fill="#B2B0BE"/>
        <path d="M977.229 195.378V156.695C977.229 150.51 981.123 145.502 985.934 145.502H1260.91C1261.53 145.502 1262.14 145.601 1262.75 145.797L1388.13 180.848C1392.1 181.928 1395.01 186.542 1395.01 191.844V195.477C1395.01 201.662 1391.11 206.669 1386.3 206.669H985.934C981.123 206.669 977.229 201.564 977.229 195.378ZM985.934 152.473C984.102 152.473 982.651 154.339 982.651 156.695V195.378C982.651 197.735 984.102 199.6 985.934 199.6H1386.3C1388.13 199.6 1389.58 197.735 1389.58 195.378V191.746C1389.58 189.782 1388.52 188.015 1386.99 187.622L1261.6 152.571C1261.37 152.473 1261.14 152.473 1260.91 152.473H985.934Z" fill="#B2B0BE"/>
        <path d="M977.229 156.695V195.378C977.229 201.563 981.123 206.57 985.934 206.57H1386.3C1391.11 206.57 1395.01 201.563 1395.01 195.378V191.745C1395.01 186.542 1392.1 181.927 1388.13 180.749C1387.9 180.651 1262.9 145.797 1262.75 145.699C1260.91 145.208 1278.48 145.503 985.934 145.405C981.123 145.503 977.229 150.51 977.229 156.695ZM982.651 192.236C982.651 154.732 982.574 156.695 982.727 155.713L991.203 173.091C992.96 176.626 989.752 178.393 982.651 192.236ZM1267.25 154.339L1276.49 173.091C1278.17 176.626 1275.19 177.902 1265.73 196.163L1256.49 177.411C1255.87 176.233 1255.95 174.662 1256.56 173.484L1267.25 154.339ZM1260.91 199.6H1241.9L1249.69 185.756C1250.83 183.695 1253.2 183.793 1254.19 185.953L1260.91 199.6ZM1028.39 177.411C1026.71 173.877 1029.69 172.502 1039.16 154.339L1048.4 173.091C1049.01 174.269 1048.93 175.84 1048.32 177.018L1037.63 196.163L1028.39 177.411ZM1026.64 164.746C1025.49 166.808 1023.12 166.709 1022.13 164.55L1016.25 152.473H1033.51L1026.64 164.746ZM1044.73 152.473H1061.99L1055.12 164.746C1053.97 166.808 1051.61 166.709 1050.61 164.55L1044.73 152.473ZM1056.87 177.411C1056.26 176.233 1056.34 174.662 1056.95 173.484L1067.64 154.339L1076.88 173.091C1077.49 174.269 1077.42 175.84 1076.81 177.018L1066.11 196.163L1056.87 177.411ZM1073.22 152.473H1090.47L1083.6 164.746C1082.46 166.808 1080.09 166.709 1079.1 164.55L1073.22 152.473ZM1085.43 177.411C1083.75 173.877 1086.73 172.502 1096.2 154.339L1105.44 173.091C1107.12 176.626 1104.14 178 1094.67 196.163L1085.43 177.411ZM1101.7 152.473H1118.96L1112.08 164.746C1110.94 166.808 1108.57 166.709 1107.58 164.55L1101.7 152.473ZM1113.92 177.411C1112.24 173.877 1115.22 172.502 1124.68 154.339L1133.92 173.091C1134.53 174.269 1134.46 175.84 1133.85 177.018L1123.16 196.163L1113.92 177.411ZM1130.26 152.473H1147.52L1140.64 164.746C1139.5 166.808 1137.13 166.709 1136.14 164.55L1130.26 152.473ZM1142.4 177.411C1141.79 176.233 1141.87 174.662 1142.48 173.484L1153.17 154.339L1162.41 173.091C1163.02 174.269 1162.94 175.84 1162.33 177.018L1151.64 196.163L1142.4 177.411ZM1158.74 152.473H1176L1169.13 164.746C1167.98 166.808 1165.61 166.709 1164.62 164.55L1158.74 152.473ZM1170.96 177.411C1170.35 176.233 1170.43 174.662 1171.04 173.484L1181.73 154.339L1190.97 173.091C1191.58 174.269 1191.5 175.84 1190.89 177.018L1180.2 196.163L1170.96 177.411ZM1187.22 152.473H1204.48L1197.61 164.746C1196.46 166.808 1194.1 166.709 1193.1 164.55L1187.22 152.473ZM1199.44 177.411C1198.83 176.233 1198.91 174.662 1199.52 173.484L1210.21 154.339L1219.45 173.091C1221.13 176.626 1218.15 178 1208.68 196.163L1199.44 177.411ZM1215.78 152.473H1233.04L1226.17 164.746C1225.02 166.808 1222.66 166.709 1221.66 164.55L1215.78 152.473ZM1247.93 173.091C1248.54 174.269 1248.47 175.84 1247.86 177.018L1237.17 196.163L1227.93 177.411C1227.31 176.233 1227.39 174.662 1228 173.484L1238.69 154.339L1247.93 173.091ZM1232.43 199.6H1213.42L1221.21 185.756C1222.35 183.695 1224.72 183.793 1225.71 185.953L1232.43 199.6ZM1203.87 199.6H1184.86L1192.65 185.756C1193.79 183.695 1196.16 183.793 1197.15 185.953L1203.87 199.6ZM1175.39 199.6H1156.37L1164.16 185.756C1165.31 183.695 1167.68 183.793 1168.67 185.953L1175.39 199.6ZM1146.91 199.6H1127.89L1135.68 185.756C1136.83 183.695 1139.19 183.793 1140.19 185.953L1146.91 199.6ZM1118.35 199.6H1099.33L1107.12 185.756C1108.27 183.695 1110.63 183.793 1111.63 185.953L1118.35 199.6ZM1089.86 199.6H1070.85L1078.64 185.756C1079.78 183.695 1082.15 183.793 1083.14 185.953L1089.86 199.6ZM1061.38 199.6H1042.37L1050.15 185.756C1051.3 183.695 1053.67 183.793 1054.66 185.953L1061.38 199.6ZM1032.82 199.6H1013.81L1021.6 185.756C1022.74 183.695 1025.11 183.793 1026.1 185.953L1032.82 199.6ZM999.832 173.484L1010.6 154.241C1018.62 172.011 1021.67 173.68 1019.76 177.116L1009 196.36C1000.98 178.589 997.999 176.822 999.832 173.484ZM997.999 164.746C996.854 166.808 994.487 166.709 993.494 164.55L987.614 152.473H1004.87L997.999 164.746ZM1261.53 152.572L1254.73 164.746C1253.58 166.808 1251.22 166.709 1250.22 164.55L1244.34 152.473C1261.83 152.572 1260.84 152.473 1261.53 152.572ZM1286.11 159.444L1283.14 164.746C1281.99 166.808 1279.62 166.709 1278.63 164.55L1274.51 156.204L1286.11 159.444ZM1300.16 163.371L1304.9 173.091C1306.66 176.626 1303.52 178 1294.13 196.163L1284.89 177.411C1284.28 176.233 1284.36 174.662 1284.97 173.484L1291.84 161.113L1300.16 163.371ZM1310.02 166.12C1309.25 166.317 1308.49 166.12 1307.88 165.531L1310.02 166.12ZM1333.23 172.6C1333.23 172.698 1334.68 174.76 1333.38 177.018L1322.69 196.163L1313.45 177.411C1312.84 176.233 1312.92 174.662 1313.53 173.484L1316.58 167.986L1333.23 172.6ZM1360.11 180.16L1351.17 196.163C1342.01 176.822 1341.25 177.215 1341.55 174.957L1360.11 180.16ZM1386.3 199.6H1381.11C1380.88 198.225 1380.96 198.912 1373.7 183.891L1386.99 187.622C1390.5 188.603 1389.36 194.2 1389.58 195.378C1389.58 197.734 1388.06 199.6 1386.3 199.6ZM1355.99 199.6L1363.7 185.756C1364.84 183.695 1367.21 183.793 1368.2 185.953L1374.92 199.698H1355.99V199.6ZM1327.43 199.6L1335.21 185.756C1336.36 183.695 1338.73 183.793 1339.72 185.953L1346.44 199.698H1327.43V199.6ZM1298.94 199.6L1306.66 185.756C1307.8 183.695 1310.17 183.793 1311.16 185.953L1317.88 199.698H1298.94V199.6ZM1270.46 199.6L1278.25 185.756C1279.39 183.695 1281.76 183.793 1282.75 185.953L1289.47 199.698H1270.46V199.6ZM985.934 199.6C985.705 199.6 985.476 199.6 985.323 199.501L993.036 185.658C994.181 183.596 996.549 183.695 997.541 185.854L1004.26 199.6H985.934Z" fill="#B2B0BE"/>
        <path d="M1357.28 333.321H1362.7C1364.54 333.321 1366.06 331.357 1366.06 329.001V208.534C1366.06 206.178 1364.54 204.214 1362.7 204.214H1357.28C1355.45 204.214 1353.92 206.178 1353.92 208.534V329.001C1353.92 331.357 1355.45 333.321 1357.28 333.321Z" fill="#B2B0BE"/>
        <path d="M1306.04 245.548H1376.14C1379.28 245.548 1381.8 242.308 1381.8 238.283V225.421C1381.8 221.396 1379.28 218.156 1376.14 218.156H1306.04C1302.91 218.156 1300.39 221.396 1300.39 225.421V238.283C1300.39 242.308 1302.91 245.548 1306.04 245.548Z" fill="#B2B0BE"/>
        <path d="M1306.04 276.966H1376.14C1379.28 276.966 1381.8 273.726 1381.8 269.7V256.839C1381.8 252.813 1379.28 249.573 1376.14 249.573H1306.04C1302.91 249.573 1300.39 252.813 1300.39 256.839V269.7C1300.39 273.726 1302.91 276.966 1306.04 276.966Z" fill="#B2B0BE"/>
        <path d="M1306.04 307.401H1376.14C1379.28 307.401 1381.8 304.161 1381.8 300.136V287.275C1381.8 283.249 1379.28 280.01 1376.14 280.01H1306.04C1302.91 280.01 1300.39 283.249 1300.39 287.275V300.136C1300.39 304.161 1302.91 307.401 1306.04 307.401Z" fill="#B2B0BE"/>
        <path d="M1306.04 340.292H1376.14C1379.28 340.292 1381.8 337.052 1381.8 333.026V320.165C1381.8 316.139 1379.28 312.899 1376.14 312.899H1306.04C1302.91 312.899 1300.39 316.139 1300.39 320.165V333.026C1300.39 337.052 1302.91 340.292 1306.04 340.292Z" fill="#B2B0BE"/>
        <path d="M1384.09 186.444C1384.85 186.444 1385.61 186.051 1386.15 185.265C1387.14 183.793 1387.06 181.633 1385.92 180.356L1239.3 13.7454L1011.29 145.012C1009.91 145.797 1009.3 147.859 1009.91 149.626C1010.52 151.393 1012.13 152.179 1013.5 151.393L1238.31 21.9925L1382.25 185.56C1382.79 186.149 1383.48 186.444 1384.09 186.444Z" fill="#B2B0BE"/>
        <path d="M1237.47 22.1887H1239.69C1240.53 22.1887 1241.21 21.3051 1241.21 20.2251V2.35619C1241.21 1.27621 1240.53 0.392578 1239.69 0.392578H1237.47C1236.63 0.392578 1235.94 1.27621 1235.94 2.35619V20.2251C1235.94 21.3051 1236.63 22.1887 1237.47 22.1887Z" fill="#B2B0BE"/>
        <path d="M952.182 200.483H980.512V169.164H952.182C945.462 169.164 940.041 176.135 940.041 184.775C940.041 193.513 945.462 200.483 952.182 200.483Z" fill="#B2B0BE"/>
        <path d="M961.422 222.966H961.575C964.935 222.966 967.607 219.432 967.607 215.21V192.138H955.389V215.21C955.389 219.53 958.062 222.966 961.422 222.966Z" fill="#B2B0BE"/>
        <path d="M962 203.192L960.861 207.151L1075.81 261.8L1076.95 257.84L962 203.192Z" fill="#B2B0BE"/>
        <path d="M1055.2 380.42H1099.87V363.042H1055.2V380.42Z" fill="#B2B0BE"/>
        <path d="M1054.28 380.447H1100.17C1107.73 380.447 1113.92 388.4 1113.92 398.119V400.377H1040.53V398.119C1040.46 388.302 1046.64 380.447 1054.28 380.447Z" fill="#B2B0BE"/>
        <path d="M1039.85 400.378V452.216H1114.76V400.378H1039.85ZM1050 408.821C1050 406.563 1051.45 404.698 1053.21 404.698H1100.02C1101.78 404.698 1103.23 406.563 1103.23 408.821V411.472C1103.23 413.73 1101.78 415.596 1100.02 415.596H1053.21C1051.45 415.596 1050 413.73 1050 411.472V408.821Z" fill="#B2B0BE"/>
        <path d="M393.594 1398.08H309.366C307.381 1398.08 305.777 1396.02 305.777 1393.47V555.305C305.777 551.771 308.679 549.611 311.046 551.28L395.197 611.562C396.343 612.348 397.03 613.918 397.03 615.588V1393.56C397.106 1396.02 395.503 1398.08 393.594 1398.08Z" fill="#D8D7DF"/>
        <path d="M542.5 1398.08H432.386C430.4 1398.08 428.797 1396.02 428.797 1393.47V705.226C428.797 702.673 430.4 700.612 432.386 700.612H542.5C544.485 700.612 546.089 702.673 546.089 705.226V1393.57C546.089 1396.02 544.485 1398.08 542.5 1398.08Z" fill="#D8D7DF"/>
        <path d="M495.69 700.612H445.443C443.458 700.612 441.854 698.55 441.854 695.997V625.308C441.854 622.755 443.458 620.693 445.443 620.693H495.69C497.675 620.693 499.279 622.755 499.279 625.308V695.997C499.202 698.55 497.599 700.612 495.69 700.612Z" fill="#D8D7DF"/>
        <path d="M626.574 701.201H547.921C545.936 701.201 544.332 699.139 544.332 696.586V481.376C544.332 478.823 545.936 476.761 547.921 476.761H626.498C627.872 478.529 628.636 479.511 630.087 481.376V696.684C630.087 699.139 628.483 701.201 626.574 701.201Z" fill="#D8D7DF"/>
        <path d="M882.998 286.096H789.302C787.927 287.863 787.164 288.845 785.713 290.71V516.819C785.713 519.371 784.109 521.433 782.124 521.433H756.543C754.557 521.433 752.954 519.371 752.954 516.819V328.215C752.954 325.662 751.35 323.601 749.365 323.601H689.497C687.511 323.601 685.908 325.662 685.908 328.215V1393.47C685.908 1396.02 687.511 1398.08 689.497 1398.08H894.987C896.973 1398.08 898.576 1396.02 898.576 1393.47V307.499C898.576 306.321 898.271 305.241 897.66 304.357L885.518 287.47C884.907 286.587 883.991 286.096 882.998 286.096Z" fill="#D8D7DF"/>
        <path d="M1162.71 829.915V868.303C1162.71 870.855 1161.11 872.917 1159.12 872.917H1125.91C1123.92 872.917 1122.32 874.979 1122.32 877.532V1393.56C1122.32 1396.12 1123.92 1398.18 1125.91 1398.18H1284.36C1286.34 1398.18 1287.95 1396.12 1287.95 1393.56V829.915C1287.95 827.362 1286.34 825.3 1284.36 825.3H1166.15C1164.32 825.398 1162.71 827.46 1162.71 829.915Z" fill="#D8D7DF"/>
        <path d="M898.652 336.168H785.713V360.222H898.652V336.168Z" fill="white"/>
        <path d="M898.652 384.08H785.713V408.134H898.652V384.08Z" fill="white"/>
        <path d="M898.652 431.991H785.713V456.045H898.652V431.991Z" fill="white"/>
        <path d="M898.652 479.805H785.713V503.859H898.652V479.805Z" fill="white"/>
        <path d="M898.652 527.717H785.713V551.771H898.652V527.717Z" fill="white"/>
        <path d="M898.652 575.629H785.713V599.683H898.652V575.629Z" fill="white"/>
        <path d="M898.652 623.541H785.713V647.595H898.652V623.541Z" fill="white"/>
        <path d="M898.652 671.453H785.713V695.506H898.652V671.453Z" fill="white"/>
        <path d="M898.652 719.266H785.713V743.319H898.652V719.266Z" fill="white"/>
        <path d="M898.652 767.178H785.713V791.232H898.652V767.178Z" fill="white"/>
        <path d="M898.652 815.089H785.713V839.143H898.652V815.089Z" fill="white"/>
        <path d="M898.652 863.001H785.713V887.055H898.652V863.001Z" fill="white"/>
        <path d="M898.652 910.913H785.713V934.967H898.652V910.913Z" fill="white"/>
        <path d="M898.652 958.825H785.713V982.879H898.652V958.825Z" fill="white"/>
        <path d="M898.652 1006.64H785.713V1030.69H898.652V1006.64Z" fill="white"/>
        <path d="M898.652 1054.55H785.713V1078.6H898.652V1054.55Z" fill="white"/>
        <path d="M898.652 1102.46H785.713V1126.52H898.652V1102.46Z" fill="white"/>
        <path d="M898.652 1150.37H785.713V1174.43H898.652V1150.37Z" fill="white"/>
        <path d="M898.652 1198.29H785.713V1222.34H898.652V1198.29Z" fill="white"/>
        <path d="M898.652 1246.1H785.713V1270.15H898.652V1246.1Z" fill="white"/>
        <path d="M898.652 1294.01H785.713V1318.07H898.652V1294.01Z" fill="white"/>
        <path d="M342.889 584.465H326.013C324.028 584.465 322.424 582.403 322.424 579.85V525.361C322.424 522.808 324.028 520.746 326.013 520.746H342.889C344.875 520.746 346.478 522.808 346.478 525.361V579.85C346.478 582.403 344.875 584.465 342.889 584.465Z" fill="#D8D7DF"/>
        <path d="M-9.21661 791.035V735.76H-78.1716V791.035H-112V1398.08H29.6517V791.035H-9.21661Z" fill="#D9DAE6"/>
        <path d="M737.834 810.475V714.357H673.003V838.26H639.403V691.579H537.002L513.024 716.517V1398.08H749.823V834.234L737.834 810.475Z" fill="#CDCCD4"/>
        <path d="M1037.4 836.493H877.271V1398.08H1037.4V836.493Z" fill="#E7E8EC"/>
        <path d="M1004.72 787.01H923.394V836.591H1004.72V787.01Z" fill="#E7E8EC"/>
        <path d="M985.858 787.01H941.568V740.865H970.204C976.313 748.719 979.749 753.138 985.858 760.992V787.01Z" fill="#E7E8EC"/>
        <path d="M1121.48 772.97V754.119H1098.49L1096.35 656.234L1094.22 754.119H1071.23V772.97C1065.35 775.522 1061.15 781.61 1061.15 788.679V1398.08H1131.4V788.679C1131.56 781.61 1127.43 775.522 1121.48 772.97Z" fill="#E7E8EC"/>
        <path d="M863.602 1398.08H772.12V681.27C780.138 670.961 784.644 665.169 792.738 654.761H843.061C851.079 665.07 855.584 670.863 863.679 681.27V1398.08H863.602Z" fill="#CDCCD4"/>
        <path d="M639.403 732.225H513.024V759.617H639.403V732.225Z" fill="#9A999F"/>
        <path d="M639.403 773.363H513.024V800.755H639.403V773.363Z" fill="#9A999F"/>
        <path d="M639.403 814.402H513.024V841.794H639.403V814.402Z" fill="#9A999F"/>
        <path d="M639.403 855.539H513.024V882.931H639.403V855.539Z" fill="#9A999F"/>
        <path d="M639.403 896.677H513.024V924.069H639.403V896.677Z" fill="#9A999F"/>
        <path d="M639.403 937.716H513.024V965.108H639.403V937.716Z" fill="#9A999F"/>
        <path d="M639.403 978.853H513.024V1006.25H639.403V978.853Z" fill="#9A999F"/>
        <path d="M639.403 1019.99H513.024V1047.38H639.403V1019.99Z" fill="#9A999F"/>
        <path d="M639.403 1061.03H513.024V1088.42H639.403V1061.03Z" fill="#9A999F"/>
        <path d="M639.403 1102.17H513.024V1129.56H639.403V1102.17Z" fill="#9A999F"/>
        <path d="M639.403 1143.3H513.024V1170.7H639.403V1143.3Z" fill="#9A999F"/>
        <path d="M639.403 1184.34H513.024V1211.74H639.403V1184.34Z" fill="#9A999F"/>
        <path d="M639.403 1225.48H513.024V1252.87H639.403V1225.48Z" fill="#9A999F"/>
        <path d="M639.403 1266.62H513.024V1294.01H639.403V1266.62Z" fill="#9A999F"/>
        <path d="M639.403 1307.66H513.024V1335.05H639.403V1307.66Z" fill="#9A999F"/>
        <path d="M639.403 1348.79H513.024V1376.19H639.403V1348.79Z" fill="#9A999F"/>
        <path d="M1028.09 1400.54H1188.68C1191.12 1400.54 1193.1 1397.98 1193.1 1394.84V775.817C1193.1 772.676 1191.12 770.123 1188.68 770.123H1028.09C1025.64 770.123 1023.66 772.676 1023.66 775.817V1394.84C1023.66 1397.98 1025.64 1400.54 1028.09 1400.54Z" fill="#B2B0BE"/>
        <path d="M1027.48 1400.54H1144.92C1146.98 1400.54 1148.74 1398.38 1148.74 1395.63V775.032C1148.74 772.381 1147.06 770.123 1144.92 770.123H1027.48C1025.41 770.123 1023.66 772.283 1023.66 775.032V1395.63C1023.66 1398.28 1025.41 1400.54 1027.48 1400.54Z" fill="#B2B0BE"/>
        <path d="M1160.27 825.398H1036.33C1032.36 825.398 1029.16 821.275 1029.16 816.169V807.922C1029.16 802.817 1032.36 798.693 1036.33 798.693H1160.27C1164.24 798.693 1167.45 802.817 1167.45 807.922V816.169C1167.45 821.275 1164.24 825.398 1160.27 825.398Z" fill="white"/>
        <path d="M1160.27 865.848H1036.33C1032.36 865.848 1029.16 861.725 1029.16 856.619V848.372C1029.16 843.267 1032.36 839.143 1036.33 839.143H1160.27C1164.24 839.143 1167.45 843.267 1167.45 848.372V856.619C1167.45 861.725 1164.24 865.848 1160.27 865.848Z" fill="white"/>
        <path d="M1160.27 906.397H1036.33C1032.36 906.397 1029.16 902.273 1029.16 897.168V888.921C1029.16 883.815 1032.36 879.692 1036.33 879.692H1160.27C1164.24 879.692 1167.45 883.815 1167.45 888.921V897.168C1167.45 902.273 1164.24 906.397 1160.27 906.397Z" fill="white"/>
        <path d="M1160.27 946.945H1036.33C1032.36 946.945 1029.16 942.821 1029.16 937.716V929.469C1029.16 924.363 1032.36 920.24 1036.33 920.24H1160.27C1164.24 920.24 1167.45 924.363 1167.45 929.469V937.716C1167.45 942.821 1164.24 946.945 1160.27 946.945Z" fill="white"/>
        <path d="M1160.27 987.395H1036.33C1032.36 987.395 1029.16 983.272 1029.16 978.166V969.919C1029.16 964.814 1032.36 960.69 1036.33 960.69H1160.27C1164.24 960.69 1167.45 964.814 1167.45 969.919V978.166C1167.45 983.272 1164.24 987.395 1160.27 987.395Z" fill="white"/>
        <path d="M1160.27 1027.94H1036.33C1032.36 1027.94 1029.16 1023.82 1029.16 1018.71V1010.47C1029.16 1005.36 1032.36 1001.24 1036.33 1001.24H1160.27C1164.24 1001.24 1167.45 1005.36 1167.45 1010.47V1018.71C1167.45 1023.82 1164.24 1027.94 1160.27 1027.94Z" fill="white"/>
        <path d="M1160.27 1068.39H1036.33C1032.36 1068.39 1029.16 1064.27 1029.16 1059.16V1050.92C1029.16 1045.81 1032.36 1041.69 1036.33 1041.69H1160.27C1164.24 1041.69 1167.45 1045.81 1167.45 1050.92V1059.16C1167.45 1064.27 1164.24 1068.39 1160.27 1068.39Z" fill="white"/>
        <path d="M1160.27 1108.94H1036.33C1032.36 1108.94 1029.16 1104.82 1029.16 1099.71V1091.47C1029.16 1086.36 1032.36 1082.24 1036.33 1082.24H1160.27C1164.24 1082.24 1167.45 1086.36 1167.45 1091.47V1099.71C1167.45 1104.82 1164.24 1108.94 1160.27 1108.94Z" fill="white"/>
        <path d="M1160.27 1149.49H1036.33C1032.36 1149.49 1029.16 1145.37 1029.16 1140.26V1132.01C1029.16 1126.91 1032.36 1122.79 1036.33 1122.79H1160.27C1164.24 1122.79 1167.45 1126.91 1167.45 1132.01V1140.26C1167.45 1145.37 1164.24 1149.49 1160.27 1149.49Z" fill="white"/>
        <path d="M1160.27 1189.94H1036.33C1032.36 1189.94 1029.16 1185.82 1029.16 1180.71V1172.46C1029.16 1167.36 1032.36 1163.23 1036.33 1163.23H1160.27C1164.24 1163.23 1167.45 1167.36 1167.45 1172.46V1180.71C1167.45 1185.82 1164.24 1189.94 1160.27 1189.94Z" fill="white"/>
        <path d="M1160.27 1230.49H1036.33C1032.36 1230.49 1029.16 1226.37 1029.16 1221.26V1213.01C1029.16 1207.91 1032.36 1203.78 1036.33 1203.78H1160.27C1164.24 1203.78 1167.45 1207.91 1167.45 1213.01V1221.26C1167.45 1226.37 1164.24 1230.49 1160.27 1230.49Z" fill="white"/>
        <path d="M1160.27 1270.94H1036.33C1032.36 1270.94 1029.16 1266.81 1029.16 1261.71V1253.46C1029.16 1248.36 1032.36 1244.23 1036.33 1244.23H1160.27C1164.24 1244.23 1167.45 1248.36 1167.45 1253.46V1261.71C1167.45 1266.91 1164.24 1270.94 1160.27 1270.94Z" fill="white"/>
        <path d="M1160.27 1311.49H1036.33C1032.36 1311.49 1029.16 1307.36 1029.16 1302.26V1294.01C1029.16 1288.91 1032.36 1284.78 1036.33 1284.78H1160.27C1164.24 1284.78 1167.45 1288.91 1167.45 1294.01V1302.26C1167.45 1307.36 1164.24 1311.49 1160.27 1311.49Z" fill="white"/>
        <path d="M1160.27 1352.04H1036.33C1032.36 1352.04 1029.16 1347.91 1029.16 1342.81V1334.56C1029.16 1329.45 1032.36 1325.33 1036.33 1325.33H1160.27C1164.24 1325.33 1167.45 1329.45 1167.45 1334.56V1342.81C1167.45 1347.91 1164.24 1352.04 1160.27 1352.04Z" fill="white"/>
        <path d="M1160.27 1392.49H1036.33C1032.36 1392.49 1029.16 1388.36 1029.16 1383.26V1375.01C1029.16 1369.9 1032.36 1365.78 1036.33 1365.78H1160.27C1164.24 1365.78 1167.45 1369.9 1167.45 1375.01V1383.26C1167.45 1388.36 1164.24 1392.49 1160.27 1392.49Z" fill="white"/>
        <path d="M271.338 1398.08H21.8627C19.19 1398.08 16.9755 1395.23 16.9755 1391.8V710.135C16.9755 706.699 19.19 703.851 21.8627 703.851H271.338C274.01 703.851 276.225 706.699 276.225 710.135V1391.8C276.225 1395.33 274.01 1398.08 271.338 1398.08Z" fill="#C8C6D3"/>
        <path d="M48.2077 798.006H34.6152C31.9425 798.006 29.728 795.159 29.728 791.722V742.534C29.728 739.098 31.9425 736.251 34.6152 736.251H48.2077C50.8803 736.251 53.0948 739.098 53.0948 742.534V791.624C53.0948 795.159 50.8803 798.006 48.2077 798.006Z" fill="white"/>
        <path d="M88.2213 798.006H84.9377C82.265 798.006 80.0505 795.159 80.0505 791.722V742.534C80.0505 739.098 82.265 736.251 84.9377 736.251H88.2213C90.894 736.251 93.1085 739.098 93.1085 742.534V791.624C93.1085 795.159 90.894 798.006 88.2213 798.006Z" fill="white"/>
        <path d="M147.631 798.006H134.039C131.366 798.006 129.152 795.159 129.152 791.722V742.534C129.152 739.098 131.366 736.251 134.039 736.251H147.631C150.304 736.251 152.518 739.098 152.518 742.534V791.624C152.518 795.159 150.304 798.006 147.631 798.006Z" fill="white"/>
        <path d="M247.818 798.006H234.226C231.553 798.006 229.339 795.159 229.339 791.722V742.534C229.339 739.098 231.553 736.251 234.226 736.251H247.818C250.491 736.251 252.705 739.098 252.705 742.534V791.624C252.705 795.159 250.567 798.006 247.818 798.006Z" fill="white"/>
        <path d="M247.818 869.383H234.226C231.553 869.383 229.339 866.536 229.339 863.099V813.911C229.339 810.475 231.553 807.628 234.226 807.628H247.818C250.491 807.628 252.705 810.475 252.705 813.911V863.099C252.705 866.634 250.567 869.383 247.818 869.383Z" fill="white"/>
        <path d="M247.818 940.858H234.226C231.553 940.858 229.339 938.01 229.339 934.574V885.386C229.339 881.95 231.553 879.103 234.226 879.103H247.818C250.491 879.103 252.705 881.95 252.705 885.386V934.574C252.705 938.109 250.567 940.858 247.818 940.858Z" fill="white"/>
        <path d="M247.818 1012.33H234.226C231.553 1012.33 229.339 1009.49 229.339 1006.05V956.861C229.339 953.425 231.553 950.577 234.226 950.577H247.818C250.491 950.577 252.705 953.425 252.705 956.861V1006.05C252.705 1009.49 250.567 1012.33 247.818 1012.33Z" fill="white"/>
        <path d="M247.818 1083.81H234.226C231.553 1083.81 229.339 1080.96 229.339 1077.52V1028.34C229.339 1024.9 231.553 1022.05 234.226 1022.05H247.818C250.491 1022.05 252.705 1024.9 252.705 1028.34V1077.52C252.705 1080.96 250.567 1083.81 247.818 1083.81Z" fill="white"/>
        <path d="M247.818 1155.28H234.226C231.553 1155.28 229.339 1152.44 229.339 1149V1099.81C229.339 1096.37 231.553 1093.53 234.226 1093.53H247.818C250.491 1093.53 252.705 1096.37 252.705 1099.81V1149C252.705 1152.44 250.567 1155.28 247.818 1155.28Z" fill="white"/>
        <path d="M247.818 1226.76H234.226C231.553 1226.76 229.339 1223.91 229.339 1220.47V1171.29C229.339 1167.85 231.553 1165 234.226 1165H247.818C250.491 1165 252.705 1167.85 252.705 1171.29V1220.47C252.705 1223.91 250.567 1226.76 247.818 1226.76Z" fill="white"/>
        <path d="M247.818 1298.23H234.226C231.553 1298.23 229.339 1295.39 229.339 1291.95V1242.76C229.339 1239.32 231.553 1236.48 234.226 1236.48H247.818C250.491 1236.48 252.705 1239.32 252.705 1242.76V1291.95C252.705 1295.39 250.567 1298.23 247.818 1298.23Z" fill="white"/>
        <path d="M247.818 1369.71H234.226C231.553 1369.71 229.339 1366.86 229.339 1363.42V1314.24C229.339 1310.8 231.553 1307.95 234.226 1307.95H247.818C250.491 1307.95 252.705 1310.8 252.705 1314.24V1363.42C252.705 1366.86 250.567 1369.71 247.818 1369.71Z" fill="white"/>
        <path d="M187.645 798.006H184.361C181.689 798.006 179.474 795.159 179.474 791.722V742.534C179.474 739.098 181.689 736.251 184.361 736.251H187.645C190.318 736.251 192.532 739.098 192.532 742.534V791.624C192.532 795.159 190.318 798.006 187.645 798.006Z" fill="white"/>
        <path d="M147.631 869.383H134.039C131.366 869.383 129.152 866.536 129.152 863.099V813.911C129.152 810.475 131.366 807.628 134.039 807.628H147.631C150.304 807.628 152.518 810.475 152.518 813.911V863.099C152.518 866.634 150.304 869.383 147.631 869.383Z" fill="white"/>
        <path d="M187.645 869.383H184.361C181.689 869.383 179.474 866.536 179.474 863.099V813.911C179.474 810.475 181.689 807.628 184.361 807.628H187.645C190.318 807.628 192.532 810.475 192.532 813.911V863.099C192.532 866.634 190.318 869.383 187.645 869.383Z" fill="white"/>
        <path d="M147.631 940.858H134.039C131.366 940.858 129.152 938.01 129.152 934.574V885.386C129.152 881.95 131.366 879.103 134.039 879.103H147.631C150.304 879.103 152.518 881.95 152.518 885.386V934.574C152.518 938.109 150.304 940.858 147.631 940.858Z" fill="white"/>
        <path d="M187.645 940.858H184.361C181.689 940.858 179.474 938.01 179.474 934.574V885.386C179.474 881.95 181.689 879.103 184.361 879.103H187.645C190.318 879.103 192.532 881.95 192.532 885.386V934.574C192.532 938.109 190.318 940.858 187.645 940.858Z" fill="white"/>
        <path d="M147.631 1012.33H134.039C131.366 1012.33 129.152 1009.49 129.152 1006.05V956.861C129.152 953.425 131.366 950.577 134.039 950.577H147.631C150.304 950.577 152.518 953.425 152.518 956.861V1006.05C152.518 1009.49 150.304 1012.33 147.631 1012.33Z" fill="white"/>
        <path d="M187.645 1012.33H184.361C181.689 1012.33 179.474 1009.49 179.474 1006.05V956.861C179.474 953.425 181.689 950.577 184.361 950.577H187.645C190.318 950.577 192.532 953.425 192.532 956.861V1006.05C192.532 1009.49 190.318 1012.33 187.645 1012.33Z" fill="white"/>
        <path d="M147.631 1083.81H134.039C131.366 1083.81 129.152 1080.96 129.152 1077.52V1028.34C129.152 1024.9 131.366 1022.05 134.039 1022.05H147.631C150.304 1022.05 152.518 1024.9 152.518 1028.34V1077.52C152.518 1080.96 150.304 1083.81 147.631 1083.81Z" fill="white"/>
        <path d="M187.645 1083.81H184.361C181.689 1083.81 179.474 1080.96 179.474 1077.52V1028.34C179.474 1024.9 181.689 1022.05 184.361 1022.05H187.645C190.318 1022.05 192.532 1024.9 192.532 1028.34V1077.52C192.532 1080.96 190.318 1083.81 187.645 1083.81Z" fill="white"/>
        <path d="M147.631 1155.28H134.039C131.366 1155.28 129.152 1152.44 129.152 1149V1099.81C129.152 1096.37 131.366 1093.53 134.039 1093.53H147.631C150.304 1093.53 152.518 1096.37 152.518 1099.81V1149C152.518 1152.44 150.304 1155.28 147.631 1155.28Z" fill="white"/>
        <path d="M187.645 1155.28H184.361C181.689 1155.28 179.474 1152.44 179.474 1149V1099.81C179.474 1096.37 181.689 1093.53 184.361 1093.53H187.645C190.318 1093.53 192.532 1096.37 192.532 1099.81V1149C192.532 1152.44 190.318 1155.28 187.645 1155.28Z" fill="white"/>
        <path d="M147.631 1226.76H134.039C131.366 1226.76 129.152 1223.91 129.152 1220.47V1171.29C129.152 1167.85 131.366 1165 134.039 1165H147.631C150.304 1165 152.518 1167.85 152.518 1171.29V1220.47C152.518 1223.91 150.304 1226.76 147.631 1226.76Z" fill="white"/>
        <path d="M187.645 1226.76H184.361C181.689 1226.76 179.474 1223.91 179.474 1220.47V1171.29C179.474 1167.85 181.689 1165 184.361 1165H187.645C190.318 1165 192.532 1167.85 192.532 1171.29V1220.47C192.532 1223.91 190.318 1226.76 187.645 1226.76Z" fill="white"/>
        <path d="M147.631 1298.23H134.039C131.366 1298.23 129.152 1295.39 129.152 1291.95V1242.76C129.152 1239.32 131.366 1236.48 134.039 1236.48H147.631C150.304 1236.48 152.518 1239.32 152.518 1242.76V1291.95C152.518 1295.39 150.304 1298.23 147.631 1298.23Z" fill="white"/>
        <path d="M187.645 1298.23H184.361C181.689 1298.23 179.474 1295.39 179.474 1291.95V1242.76C179.474 1239.32 181.689 1236.48 184.361 1236.48H187.645C190.318 1236.48 192.532 1239.32 192.532 1242.76V1291.95C192.532 1295.39 190.318 1298.23 187.645 1298.23Z" fill="white"/>
        <path d="M147.631 1369.71H134.039C131.366 1369.71 129.152 1366.86 129.152 1363.42V1314.24C129.152 1310.8 131.366 1307.95 134.039 1307.95H147.631C150.304 1307.95 152.518 1310.8 152.518 1314.24V1363.42C152.518 1366.86 150.304 1369.71 147.631 1369.71Z" fill="white"/>
        <path d="M187.645 1369.71H184.361C181.689 1369.71 179.474 1366.86 179.474 1363.42V1314.24C179.474 1310.8 181.689 1307.95 184.361 1307.95H187.645C190.318 1307.95 192.532 1310.8 192.532 1314.24V1363.42C192.532 1366.86 190.318 1369.71 187.645 1369.71Z" fill="white"/>
        <path d="M48.2077 869.383H34.6152C31.9425 869.383 29.728 866.536 29.728 863.099V813.911C29.728 810.475 31.9425 807.628 34.6152 807.628H48.2077C50.8803 807.628 53.0948 810.475 53.0948 813.911V863.099C53.0948 866.634 50.8803 869.383 48.2077 869.383Z" fill="white"/>
        <path d="M88.2213 869.383H84.9377C82.265 869.383 80.0505 866.536 80.0505 863.099V813.911C80.0505 810.475 82.265 807.628 84.9377 807.628H88.2213C90.894 807.628 93.1085 810.475 93.1085 813.911V863.099C93.1085 866.634 90.894 869.383 88.2213 869.383Z" fill="white"/>
        <path d="M48.2077 940.858H34.6152C31.9425 940.858 29.728 938.01 29.728 934.574V885.386C29.728 881.95 31.9425 879.103 34.6152 879.103H48.2077C50.8803 879.103 53.0948 881.95 53.0948 885.386V934.574C53.0948 938.109 50.8803 940.858 48.2077 940.858Z" fill="white"/>
        <path d="M88.2213 940.858H84.9377C82.265 940.858 80.0505 938.01 80.0505 934.574V885.386C80.0505 881.95 82.265 879.103 84.9377 879.103H88.2213C90.894 879.103 93.1085 881.95 93.1085 885.386V934.574C93.1085 938.109 90.894 940.858 88.2213 940.858Z" fill="white"/>
        <path d="M48.2077 1012.33H34.6152C31.9425 1012.33 29.728 1009.49 29.728 1006.05V956.861C29.728 953.425 31.9425 950.577 34.6152 950.577H48.2077C50.8803 950.577 53.0948 953.425 53.0948 956.861V1006.05C53.0948 1009.49 50.8803 1012.33 48.2077 1012.33Z" fill="white"/>
        <path d="M88.2213 1012.33H84.9377C82.265 1012.33 80.0505 1009.49 80.0505 1006.05V956.861C80.0505 953.425 82.265 950.577 84.9377 950.577H88.2213C90.894 950.577 93.1085 953.425 93.1085 956.861V1006.05C93.1085 1009.49 90.894 1012.33 88.2213 1012.33Z" fill="white"/>
        <path d="M48.2077 1083.81H34.6152C31.9425 1083.81 29.728 1080.96 29.728 1077.52V1028.34C29.728 1024.9 31.9425 1022.05 34.6152 1022.05H48.2077C50.8803 1022.05 53.0948 1024.9 53.0948 1028.34V1077.52C53.0948 1080.96 50.8803 1083.81 48.2077 1083.81Z" fill="white"/>
        <path d="M88.2213 1083.81H84.9377C82.265 1083.81 80.0505 1080.96 80.0505 1077.52V1028.34C80.0505 1024.9 82.265 1022.05 84.9377 1022.05H88.2213C90.894 1022.05 93.1085 1024.9 93.1085 1028.34V1077.52C93.1085 1080.96 90.894 1083.81 88.2213 1083.81Z" fill="white"/>
        <path d="M48.2077 1155.28H34.6152C31.9425 1155.28 29.728 1152.44 29.728 1149V1099.81C29.728 1096.37 31.9425 1093.53 34.6152 1093.53H48.2077C50.8803 1093.53 53.0948 1096.37 53.0948 1099.81V1149C53.0948 1152.44 50.8803 1155.28 48.2077 1155.28Z" fill="white"/>
        <path d="M88.2213 1155.28H84.9377C82.265 1155.28 80.0505 1152.44 80.0505 1149V1099.81C80.0505 1096.37 82.265 1093.53 84.9377 1093.53H88.2213C90.894 1093.53 93.1085 1096.37 93.1085 1099.81V1149C93.1085 1152.44 90.894 1155.28 88.2213 1155.28Z" fill="white"/>
        <path d="M48.2077 1226.76H34.6152C31.9425 1226.76 29.728 1223.91 29.728 1220.47V1171.29C29.728 1167.85 31.9425 1165 34.6152 1165H48.2077C50.8803 1165 53.0948 1167.85 53.0948 1171.29V1220.47C53.0948 1223.91 50.8803 1226.76 48.2077 1226.76Z" fill="white"/>
        <path d="M88.2213 1226.76H84.9377C82.265 1226.76 80.0505 1223.91 80.0505 1220.47V1171.29C80.0505 1167.85 82.265 1165 84.9377 1165H88.2213C90.894 1165 93.1085 1167.85 93.1085 1171.29V1220.47C93.1085 1223.91 90.894 1226.76 88.2213 1226.76Z" fill="white"/>
        <path d="M48.2077 1298.23H34.6152C31.9425 1298.23 29.728 1295.39 29.728 1291.95V1242.76C29.728 1239.32 31.9425 1236.48 34.6152 1236.48H48.2077C50.8803 1236.48 53.0948 1239.32 53.0948 1242.76V1291.95C53.0948 1295.39 50.8803 1298.23 48.2077 1298.23Z" fill="white"/>
        <path d="M88.2213 1298.23H84.9377C82.265 1298.23 80.0505 1295.39 80.0505 1291.95V1242.76C80.0505 1239.32 82.265 1236.48 84.9377 1236.48H88.2213C90.894 1236.48 93.1085 1239.32 93.1085 1242.76V1291.95C93.1085 1295.39 90.894 1298.23 88.2213 1298.23Z" fill="white"/>
        <path d="M48.2077 1369.71H34.6152C31.9425 1369.71 29.728 1366.86 29.728 1363.42V1314.24C29.728 1310.8 31.9425 1307.95 34.6152 1307.95H48.2077C50.8803 1307.95 53.0948 1310.8 53.0948 1314.24V1363.42C53.0948 1366.86 50.8803 1369.71 48.2077 1369.71Z" fill="white"/>
        <path d="M88.2213 1369.71H84.9377C82.265 1369.71 80.0505 1366.86 80.0505 1363.42V1314.24C80.0505 1310.8 82.265 1307.95 84.9377 1307.95H88.2213C90.894 1307.95 93.1085 1310.8 93.1085 1314.24V1363.42C93.1085 1366.86 90.894 1369.71 88.2213 1369.71Z" fill="white"/>
        <path d="M884.755 1400.54H1041.6C1044.05 1400.54 1045.96 1397.98 1045.96 1394.94V1094.02C1045.96 1090.88 1043.97 1088.42 1041.6 1088.42H884.755C882.311 1088.42 880.402 1090.97 880.402 1094.02V1394.84C880.402 1397.98 882.387 1400.54 884.755 1400.54Z" fill="#A09DAD"/>
        <path d="M1018.92 1396.71V1092.15C1018.92 1090.09 1016.02 1088.42 1012.36 1088.42H1039.39C1042.98 1088.42 1045.96 1090.09 1045.96 1092.15V1396.71C1045.96 1398.77 1043.05 1400.44 1039.39 1400.44H1012.36C1016.02 1400.54 1018.92 1398.87 1018.92 1396.71Z" fill="#9A999F"/>
        <path d="M889.184 1129.36H908.656C910.642 1129.36 912.169 1127.3 912.169 1124.85V1115.72C912.169 1113.16 910.565 1111.2 908.656 1111.2H889.184C887.198 1111.2 885.671 1113.26 885.671 1115.72V1124.85C885.671 1127.3 887.275 1129.36 889.184 1129.36Z" fill="white"/>
        <path d="M984.407 1129.36H1003.88C1005.86 1129.36 1007.39 1127.3 1007.39 1124.85V1115.72C1007.39 1113.16 1005.79 1111.2 1003.88 1111.2H984.407C982.422 1111.2 980.895 1113.26 980.895 1115.72V1124.85C980.895 1127.3 982.422 1129.36 984.407 1129.36Z" fill="white"/>
        <path d="M952.641 1129.36H972.113C974.098 1129.36 975.626 1127.3 975.626 1124.85V1115.72C975.626 1113.16 974.022 1111.2 972.113 1111.2H952.641C950.655 1111.2 949.128 1113.26 949.128 1115.72V1124.85C949.128 1127.3 950.732 1129.36 952.641 1129.36Z" fill="white"/>
        <path d="M920.95 1129.36H940.423C942.408 1129.36 943.935 1127.3 943.935 1124.85V1115.72C943.935 1113.16 942.332 1111.2 940.423 1111.2H920.95C918.965 1111.2 917.438 1113.26 917.438 1115.72V1124.85C917.438 1127.3 918.965 1129.36 920.95 1129.36Z" fill="white"/>
        <path d="M889.184 1176.88H908.656C910.642 1176.88 912.169 1174.82 912.169 1172.37V1163.24C912.169 1160.68 910.565 1158.72 908.656 1158.72H889.184C887.198 1158.72 885.671 1160.78 885.671 1163.24V1172.37C885.671 1174.92 887.275 1176.88 889.184 1176.88Z" fill="white"/>
        <path d="M984.407 1176.88H1003.88C1005.86 1176.88 1007.39 1174.82 1007.39 1172.37V1163.24C1007.39 1160.68 1005.79 1158.72 1003.88 1158.72H984.407C982.422 1158.72 980.895 1160.78 980.895 1163.24V1172.37C980.895 1174.92 982.422 1176.88 984.407 1176.88Z" fill="white"/>
        <path d="M952.641 1176.88H972.113C974.098 1176.88 975.626 1174.82 975.626 1172.37V1163.24C975.626 1160.68 974.022 1158.72 972.113 1158.72H952.641C950.655 1158.72 949.128 1160.78 949.128 1163.24V1172.37C949.128 1174.92 950.732 1176.88 952.641 1176.88Z" fill="white"/>
        <path d="M920.95 1176.88H940.423C942.408 1176.88 943.935 1174.82 943.935 1172.37V1163.24C943.935 1160.68 942.332 1158.72 940.423 1158.72H920.95C918.965 1158.72 917.438 1160.78 917.438 1163.24V1172.37C917.438 1174.92 918.965 1176.88 920.95 1176.88Z" fill="white"/>
        <path d="M889.184 1224.5H908.656C910.642 1224.5 912.169 1222.44 912.169 1219.98V1210.85C912.169 1208.3 910.565 1206.34 908.656 1206.34H889.184C887.198 1206.34 885.671 1208.4 885.671 1210.85V1219.98C885.671 1222.44 887.275 1224.5 889.184 1224.5Z" fill="white"/>
        <path d="M984.407 1224.5H1003.88C1005.86 1224.5 1007.39 1222.44 1007.39 1219.98V1210.85C1007.39 1208.3 1005.79 1206.34 1003.88 1206.34H984.407C982.422 1206.34 980.895 1208.4 980.895 1210.85V1219.98C980.895 1222.44 982.422 1224.5 984.407 1224.5Z" fill="white"/>
        <path d="M952.641 1224.5H972.113C974.098 1224.5 975.626 1222.44 975.626 1219.98V1210.85C975.626 1208.3 974.022 1206.34 972.113 1206.34H952.641C950.655 1206.34 949.128 1208.4 949.128 1210.85V1219.98C949.128 1222.44 950.732 1224.5 952.641 1224.5Z" fill="white"/>
        <path d="M920.95 1224.5H940.423C942.408 1224.5 943.935 1222.44 943.935 1219.98V1210.85C943.935 1208.3 942.332 1206.34 940.423 1206.34H920.95C918.965 1206.34 917.438 1208.4 917.438 1210.85V1219.98C917.438 1222.44 918.965 1224.5 920.95 1224.5Z" fill="white"/>
        <path d="M889.184 1272.02H908.656C910.642 1272.02 912.169 1269.96 912.169 1267.5V1258.37C912.169 1255.82 910.565 1253.86 908.656 1253.86H889.184C887.198 1253.86 885.671 1255.92 885.671 1258.37V1267.5C885.671 1269.96 887.275 1272.02 889.184 1272.02Z" fill="white"/>
        <path d="M984.407 1272.02H1003.88C1005.86 1272.02 1007.39 1269.96 1007.39 1267.5V1258.37C1007.39 1255.82 1005.79 1253.86 1003.88 1253.86H984.407C982.422 1253.86 980.895 1255.92 980.895 1258.37V1267.5C980.895 1269.96 982.422 1272.02 984.407 1272.02Z" fill="white"/>
        <path d="M952.641 1272.02H972.113C974.098 1272.02 975.626 1269.96 975.626 1267.5V1258.37C975.626 1255.82 974.022 1253.86 972.113 1253.86H952.641C950.655 1253.86 949.128 1255.92 949.128 1258.37V1267.5C949.128 1269.96 950.732 1272.02 952.641 1272.02Z" fill="white"/>
        <path d="M920.95 1272.02H940.423C942.408 1272.02 943.935 1269.96 943.935 1267.5V1258.37C943.935 1255.82 942.332 1253.86 940.423 1253.86H920.95C918.965 1253.86 917.438 1255.92 917.438 1258.37V1267.5C917.438 1269.96 918.965 1272.02 920.95 1272.02Z" fill="white"/>
        <path d="M889.184 1319.54H908.656C910.642 1319.54 912.169 1317.48 912.169 1315.02V1305.89C912.169 1303.34 910.565 1301.38 908.656 1301.38H889.184C887.198 1301.38 885.671 1303.44 885.671 1305.89V1315.02C885.671 1317.48 887.275 1319.54 889.184 1319.54Z" fill="white"/>
        <path d="M984.407 1319.54H1003.88C1005.86 1319.54 1007.39 1317.48 1007.39 1315.02V1305.89C1007.39 1303.34 1005.79 1301.38 1003.88 1301.38H984.407C982.422 1301.38 980.895 1303.44 980.895 1305.89V1315.02C980.895 1317.48 982.422 1319.54 984.407 1319.54Z" fill="white"/>
        <path d="M952.641 1319.54H972.113C974.098 1319.54 975.626 1317.48 975.626 1315.02V1305.89C975.626 1303.34 974.022 1301.38 972.113 1301.38H952.641C950.655 1301.38 949.128 1303.44 949.128 1305.89V1315.02C949.128 1317.48 950.732 1319.54 952.641 1319.54Z" fill="white"/>
        <path d="M920.95 1319.54H940.423C942.408 1319.54 943.935 1317.48 943.935 1315.02V1305.89C943.935 1303.34 942.332 1301.38 940.423 1301.38H920.95C918.965 1301.38 917.438 1303.44 917.438 1305.89V1315.02C917.438 1317.48 918.965 1319.54 920.95 1319.54Z" fill="white"/>
        <path d="M889.184 1367.06H908.656C910.642 1367.06 912.169 1364.99 912.169 1362.54V1353.41C912.169 1350.86 910.565 1348.89 908.656 1348.89H889.184C887.198 1348.89 885.671 1350.96 885.671 1353.41V1362.54C885.671 1365.09 887.275 1367.06 889.184 1367.06Z" fill="white"/>
        <path d="M984.407 1367.06H1003.88C1005.86 1367.06 1007.39 1364.99 1007.39 1362.54V1353.41C1007.39 1350.86 1005.79 1348.89 1003.88 1348.89H984.407C982.422 1348.89 980.895 1350.96 980.895 1353.41V1362.54C980.895 1365.09 982.422 1367.06 984.407 1367.06Z" fill="white"/>
        <path d="M952.641 1367.06H972.113C974.098 1367.06 975.626 1364.99 975.626 1362.54V1353.41C975.626 1350.86 974.022 1348.89 972.113 1348.89H952.641C950.655 1348.89 949.128 1350.96 949.128 1353.41V1362.54C949.128 1365.09 950.732 1367.06 952.641 1367.06Z" fill="white"/>
        <path d="M920.95 1367.06H940.423C942.408 1367.06 943.935 1364.99 943.935 1362.54V1353.41C943.935 1350.86 942.332 1348.89 940.423 1348.89H920.95C918.965 1348.89 917.438 1350.96 917.438 1353.41V1362.54C917.438 1365.09 918.965 1367.06 920.95 1367.06Z" fill="white"/>
        <path d="M1493.13 1400.54H1191.73C1188.45 1400.54 1185.77 1397.1 1185.77 1392.88V550.888C1185.77 546.666 1188.45 543.229 1191.73 543.229H1493.13C1496.42 543.229 1499.09 546.666 1499.09 550.888V1392.88C1499.09 1397.1 1496.42 1400.54 1493.13 1400.54Z" fill="#B2B0BE"/>
        <path d="M1439.53 1400.54H1191.12C1188.14 1400.54 1185.7 1397.39 1185.7 1393.56V550.2C1185.7 546.371 1188.14 543.229 1191.12 543.229H1439.53C1442.5 543.229 1444.95 546.371 1444.95 550.2V1393.56C1445.02 1397.39 1442.58 1400.54 1439.53 1400.54Z" fill="#9A999F"/>
        <path d="M1416.01 659.376H1403.48C1400.5 659.376 1398.06 656.234 1398.06 652.405V590.061C1398.06 586.232 1400.5 583.091 1403.48 583.091H1416.01C1418.98 583.091 1421.43 586.232 1421.43 590.061V652.405C1421.5 656.234 1419.06 659.376 1416.01 659.376Z" fill="white"/>
        <path d="M1416.01 747.64H1403.48C1400.5 747.64 1398.06 744.498 1398.06 740.669V678.325C1398.06 674.496 1400.5 671.354 1403.48 671.354H1416.01C1418.98 671.354 1421.43 674.496 1421.43 678.325V740.669C1421.5 744.498 1419.06 747.64 1416.01 747.64Z" fill="white"/>
        <path d="M1416.01 835.903H1403.48C1400.5 835.903 1398.06 832.762 1398.06 828.933V766.588C1398.06 762.759 1400.5 759.617 1403.48 759.617H1416.01C1418.98 759.617 1421.43 762.759 1421.43 766.588V828.933C1421.5 832.762 1419.06 835.903 1416.01 835.903Z" fill="white"/>
        <path d="M1416.01 924.167H1403.48C1400.5 924.167 1398.06 921.025 1398.06 917.196V854.852C1398.06 851.023 1400.5 847.881 1403.48 847.881H1416.01C1418.98 847.881 1421.43 851.023 1421.43 854.852V917.196C1421.5 921.025 1419.06 924.167 1416.01 924.167Z" fill="white"/>
        <path d="M1416.01 1012.43H1403.48C1400.5 1012.43 1398.06 1009.29 1398.06 1005.46V943.116C1398.06 939.287 1400.5 936.145 1403.48 936.145H1416.01C1418.98 936.145 1421.43 939.287 1421.43 943.116V1005.46C1421.5 1009.29 1419.06 1012.43 1416.01 1012.43Z" fill="white"/>
        <path d="M1416.01 1100.6H1403.48C1400.5 1100.6 1398.06 1097.45 1398.06 1093.63V1031.28C1398.06 1027.45 1400.5 1024.31 1403.48 1024.31H1416.01C1418.98 1024.31 1421.43 1027.45 1421.43 1031.28V1093.63C1421.5 1097.55 1419.06 1100.6 1416.01 1100.6Z" fill="white"/>
        <path d="M1416.01 1188.86H1403.48C1400.5 1188.86 1398.06 1185.72 1398.06 1181.89V1119.55C1398.06 1115.72 1400.5 1112.57 1403.48 1112.57H1416.01C1418.98 1112.57 1421.43 1115.72 1421.43 1119.55V1181.89C1421.5 1185.72 1419.06 1188.86 1416.01 1188.86Z" fill="white"/>
        <path d="M1416.01 1277.12H1403.48C1400.5 1277.12 1398.06 1273.98 1398.06 1270.15V1207.81C1398.06 1203.98 1400.5 1200.84 1403.48 1200.84H1416.01C1418.98 1200.84 1421.43 1203.98 1421.43 1207.81V1270.15C1421.5 1273.98 1419.06 1277.12 1416.01 1277.12Z" fill="white"/>
        <path d="M1416.01 1365.39H1403.48C1400.5 1365.39 1398.06 1362.25 1398.06 1358.42V1296.07C1398.06 1292.24 1400.5 1289.1 1403.48 1289.1H1416.01C1418.98 1289.1 1421.43 1292.24 1421.43 1296.07V1358.42C1421.5 1362.25 1419.06 1365.39 1416.01 1365.39Z" fill="white"/>
        <path d="M1355.83 659.376H1353.62C1350.64 659.376 1348.2 656.234 1348.2 652.405V590.061C1348.2 586.232 1350.64 583.091 1353.62 583.091H1355.83C1358.81 583.091 1361.25 586.232 1361.25 590.061V652.405C1361.25 656.234 1358.81 659.376 1355.83 659.376Z" fill="white"/>
        <path d="M1315.82 747.64H1303.3C1300.32 747.64 1297.87 744.498 1297.87 740.669V678.325C1297.87 674.496 1300.32 671.354 1303.3 671.354H1315.82C1318.8 671.354 1321.24 674.496 1321.24 678.325V740.669C1321.24 744.498 1318.8 747.64 1315.82 747.64Z" fill="white"/>
        <path d="M1355.83 747.64H1353.62C1350.64 747.64 1348.2 744.498 1348.2 740.669V678.325C1348.2 674.496 1350.64 671.354 1353.62 671.354H1355.83C1358.81 671.354 1361.25 674.496 1361.25 678.325V740.669C1361.25 744.498 1358.81 747.64 1355.83 747.64Z" fill="white"/>
        <path d="M1315.82 835.903H1303.3C1300.32 835.903 1297.87 832.762 1297.87 828.933V766.588C1297.87 762.759 1300.32 759.617 1303.3 759.617H1315.82C1318.8 759.617 1321.24 762.759 1321.24 766.588V828.933C1321.24 832.762 1318.8 835.903 1315.82 835.903Z" fill="white"/>
        <path d="M1355.83 835.903H1353.62C1350.64 835.903 1348.2 832.762 1348.2 828.933V766.588C1348.2 762.759 1350.64 759.617 1353.62 759.617H1355.83C1358.81 759.617 1361.25 762.759 1361.25 766.588V828.933C1361.25 832.762 1358.81 835.903 1355.83 835.903Z" fill="white"/>
        <path d="M1315.82 924.167H1303.3C1300.32 924.167 1297.87 921.025 1297.87 917.196V854.852C1297.87 851.023 1300.32 847.881 1303.3 847.881H1315.82C1318.8 847.881 1321.24 851.023 1321.24 854.852V917.196C1321.24 921.025 1318.8 924.167 1315.82 924.167Z" fill="white"/>
        <path d="M1355.83 924.167H1353.62C1350.64 924.167 1348.2 921.025 1348.2 917.196V854.852C1348.2 851.023 1350.64 847.881 1353.62 847.881H1355.83C1358.81 847.881 1361.25 851.023 1361.25 854.852V917.196C1361.25 921.025 1358.81 924.167 1355.83 924.167Z" fill="white"/>
        <path d="M1315.82 1012.43H1303.3C1300.32 1012.43 1297.87 1009.29 1297.87 1005.46V943.116C1297.87 939.287 1300.32 936.145 1303.3 936.145H1315.82C1318.8 936.145 1321.24 939.287 1321.24 943.116V1005.46C1321.24 1009.29 1318.8 1012.43 1315.82 1012.43Z" fill="white"/>
        <path d="M1355.83 1012.43H1353.62C1350.64 1012.43 1348.2 1009.29 1348.2 1005.46V943.116C1348.2 939.287 1350.64 936.145 1353.62 936.145H1355.83C1358.81 936.145 1361.25 939.287 1361.25 943.116V1005.46C1361.25 1009.29 1358.81 1012.43 1355.83 1012.43Z" fill="white"/>
        <path d="M1315.82 1100.6H1303.3C1300.32 1100.6 1297.87 1097.45 1297.87 1093.63V1031.28C1297.87 1027.45 1300.32 1024.31 1303.3 1024.31H1315.82C1318.8 1024.31 1321.24 1027.45 1321.24 1031.28V1093.63C1321.24 1097.55 1318.8 1100.6 1315.82 1100.6Z" fill="white"/>
        <path d="M1355.83 1100.6H1353.62C1350.64 1100.6 1348.2 1097.45 1348.2 1093.63V1031.28C1348.2 1027.45 1350.64 1024.31 1353.62 1024.31H1355.83C1358.81 1024.31 1361.25 1027.45 1361.25 1031.28V1093.63C1361.25 1097.55 1358.81 1100.6 1355.83 1100.6Z" fill="white"/>
        <path d="M1315.82 1188.86H1303.3C1300.32 1188.86 1297.87 1185.72 1297.87 1181.89V1119.55C1297.87 1115.72 1300.32 1112.57 1303.3 1112.57H1315.82C1318.8 1112.57 1321.24 1115.72 1321.24 1119.55V1181.89C1321.24 1185.72 1318.8 1188.86 1315.82 1188.86Z" fill="white"/>
        <path d="M1355.83 1188.86H1353.62C1350.64 1188.86 1348.2 1185.72 1348.2 1181.89V1119.55C1348.2 1115.72 1350.64 1112.57 1353.62 1112.57H1355.83C1358.81 1112.57 1361.25 1115.72 1361.25 1119.55V1181.89C1361.25 1185.72 1358.81 1188.86 1355.83 1188.86Z" fill="white"/>
        <path d="M1315.82 1277.12H1303.3C1300.32 1277.12 1297.87 1273.98 1297.87 1270.15V1207.81C1297.87 1203.98 1300.32 1200.84 1303.3 1200.84H1315.82C1318.8 1200.84 1321.24 1203.98 1321.24 1207.81V1270.15C1321.24 1273.98 1318.8 1277.12 1315.82 1277.12Z" fill="white"/>
        <path d="M1355.83 1277.12H1353.62C1350.64 1277.12 1348.2 1273.98 1348.2 1270.15V1207.81C1348.2 1203.98 1350.64 1200.84 1353.62 1200.84H1355.83C1358.81 1200.84 1361.25 1203.98 1361.25 1207.81V1270.15C1361.25 1273.98 1358.81 1277.12 1355.83 1277.12Z" fill="white"/>
        <path d="M1315.82 1365.39H1303.3C1300.32 1365.39 1297.87 1362.25 1297.87 1358.42V1296.07C1297.87 1292.24 1300.32 1289.1 1303.3 1289.1H1315.82C1318.8 1289.1 1321.24 1292.24 1321.24 1296.07V1358.42C1321.24 1362.25 1318.8 1365.39 1315.82 1365.39Z" fill="white"/>
        <path d="M1355.83 1365.39H1353.62C1350.64 1365.39 1348.2 1362.25 1348.2 1358.42V1296.07C1348.2 1292.24 1350.64 1289.1 1353.62 1289.1H1355.83C1358.81 1289.1 1361.25 1292.24 1361.25 1296.07V1358.42C1361.25 1362.25 1358.81 1365.39 1355.83 1365.39Z" fill="white"/>
        <path d="M1216.39 747.64H1203.87C1200.89 747.64 1198.45 744.498 1198.45 740.669V678.325C1198.45 674.496 1200.89 671.354 1203.87 671.354H1216.39C1219.37 671.354 1221.82 674.496 1221.82 678.325V740.669C1221.82 744.498 1219.37 747.64 1216.39 747.64Z" fill="white"/>
        <path d="M1256.41 747.64H1254.19C1251.22 747.64 1248.77 744.498 1248.77 740.669V678.325C1248.77 674.496 1251.22 671.354 1254.19 671.354H1256.41C1259.39 671.354 1261.83 674.496 1261.83 678.325V740.669C1261.83 744.498 1259.46 747.64 1256.41 747.64Z" fill="white"/>
        <path d="M1216.39 835.903H1203.87C1200.89 835.903 1198.45 832.762 1198.45 828.933V766.588C1198.45 762.759 1200.89 759.617 1203.87 759.617H1216.39C1219.37 759.617 1221.82 762.759 1221.82 766.588V828.933C1221.82 832.762 1219.37 835.903 1216.39 835.903Z" fill="white"/>
        <path d="M1256.41 835.903H1254.19C1251.22 835.903 1248.77 832.762 1248.77 828.933V766.588C1248.77 762.759 1251.22 759.617 1254.19 759.617H1256.41C1259.39 759.617 1261.83 762.759 1261.83 766.588V828.933C1261.83 832.762 1259.46 835.903 1256.41 835.903Z" fill="white"/>
        <path d="M1216.39 924.167H1203.87C1200.89 924.167 1198.45 921.025 1198.45 917.196V854.852C1198.45 851.023 1200.89 847.881 1203.87 847.881H1216.39C1219.37 847.881 1221.82 851.023 1221.82 854.852V917.196C1221.82 921.025 1219.37 924.167 1216.39 924.167Z" fill="white"/>
        <path d="M1256.41 924.167H1254.19C1251.22 924.167 1248.77 921.025 1248.77 917.196V854.852C1248.77 851.023 1251.22 847.881 1254.19 847.881H1256.41C1259.39 847.881 1261.83 851.023 1261.83 854.852V917.196C1261.83 921.025 1259.46 924.167 1256.41 924.167Z" fill="white"/>
        <path d="M1216.39 1012.43H1203.87C1200.89 1012.43 1198.45 1009.29 1198.45 1005.46V943.116C1198.45 939.287 1200.89 936.145 1203.87 936.145H1216.39C1219.37 936.145 1221.82 939.287 1221.82 943.116V1005.46C1221.82 1009.29 1219.37 1012.43 1216.39 1012.43Z" fill="white"/>
        <path d="M1256.41 1012.43H1254.19C1251.22 1012.43 1248.77 1009.29 1248.77 1005.46V943.116C1248.77 939.287 1251.22 936.145 1254.19 936.145H1256.41C1259.39 936.145 1261.83 939.287 1261.83 943.116V1005.46C1261.83 1009.29 1259.46 1012.43 1256.41 1012.43Z" fill="white"/>
        <path d="M1216.39 1100.6H1203.87C1200.89 1100.6 1198.45 1097.45 1198.45 1093.63V1031.28C1198.45 1027.45 1200.89 1024.31 1203.87 1024.31H1216.39C1219.37 1024.31 1221.82 1027.45 1221.82 1031.28V1093.63C1221.82 1097.55 1219.37 1100.6 1216.39 1100.6Z" fill="white"/>
        <path d="M1256.41 1100.6H1254.19C1251.22 1100.6 1248.77 1097.45 1248.77 1093.63V1031.28C1248.77 1027.45 1251.22 1024.31 1254.19 1024.31H1256.41C1259.39 1024.31 1261.83 1027.45 1261.83 1031.28V1093.63C1261.83 1097.55 1259.46 1100.6 1256.41 1100.6Z" fill="white"/>
        <path d="M1216.39 1188.86H1203.87C1200.89 1188.86 1198.45 1185.72 1198.45 1181.89V1119.55C1198.45 1115.72 1200.89 1112.57 1203.87 1112.57H1216.39C1219.37 1112.57 1221.82 1115.72 1221.82 1119.55V1181.89C1221.82 1185.72 1219.37 1188.86 1216.39 1188.86Z" fill="white"/>
        <path d="M1256.41 1188.86H1254.19C1251.22 1188.86 1248.77 1185.72 1248.77 1181.89V1119.55C1248.77 1115.72 1251.22 1112.57 1254.19 1112.57H1256.41C1259.39 1112.57 1261.83 1115.72 1261.83 1119.55V1181.89C1261.83 1185.72 1259.46 1188.86 1256.41 1188.86Z" fill="white"/>
        <path d="M1216.39 1277.12H1203.87C1200.89 1277.12 1198.45 1273.98 1198.45 1270.15V1207.81C1198.45 1203.98 1200.89 1200.84 1203.87 1200.84H1216.39C1219.37 1200.84 1221.82 1203.98 1221.82 1207.81V1270.15C1221.82 1273.98 1219.37 1277.12 1216.39 1277.12Z" fill="white"/>
        <path d="M1256.41 1277.12H1254.19C1251.22 1277.12 1248.77 1273.98 1248.77 1270.15V1207.81C1248.77 1203.98 1251.22 1200.84 1254.19 1200.84H1256.41C1259.39 1200.84 1261.83 1203.98 1261.83 1207.81V1270.15C1261.83 1273.98 1259.46 1277.12 1256.41 1277.12Z" fill="white"/>
        <path d="M1216.39 1365.39H1203.87C1200.89 1365.39 1198.45 1362.25 1198.45 1358.42V1296.07C1198.45 1292.24 1200.89 1289.1 1203.87 1289.1H1216.39C1219.37 1289.1 1221.82 1292.24 1221.82 1296.07V1358.42C1221.82 1362.25 1219.37 1365.39 1216.39 1365.39Z" fill="white"/>
        <path d="M1256.41 1365.39H1254.19C1251.22 1365.39 1248.77 1362.25 1248.77 1358.42V1296.07C1248.77 1292.24 1251.22 1289.1 1254.19 1289.1H1256.41C1259.39 1289.1 1261.83 1292.24 1261.83 1296.07V1358.42C1261.83 1362.25 1259.46 1365.39 1256.41 1365.39Z" fill="white"/>
        <path d="M1391.95 1400.54H1544.45C1548.04 1400.54 1551.01 1396.8 1551.01 1392.09V709.251C1551.01 704.637 1548.11 700.808 1544.45 700.808H1391.95C1388.36 700.808 1385.38 704.539 1385.38 709.251V1392.09C1385.38 1396.71 1388.29 1400.54 1391.95 1400.54Z" fill="#D7D6DD"/>
        <path d="M1394.17 741.749H1413.64C1415.62 741.749 1417.15 739.687 1417.15 737.233V728.102C1417.15 725.549 1415.55 723.586 1413.64 723.586H1394.17C1392.18 723.586 1390.65 725.647 1390.65 728.102V737.233C1390.65 739.786 1392.26 741.749 1394.17 741.749Z" fill="white"/>
        <path d="M1425.93 741.749H1445.4C1447.39 741.749 1448.92 739.687 1448.92 737.233V728.102C1448.92 725.549 1447.31 723.586 1445.4 723.586H1425.93C1423.95 723.586 1422.42 725.647 1422.42 728.102V737.233C1422.34 739.786 1423.95 741.749 1425.93 741.749Z" fill="white"/>
        <path d="M1394.17 789.366H1413.64C1415.62 789.366 1417.15 787.304 1417.15 784.85V775.719C1417.15 773.167 1415.55 771.203 1413.64 771.203H1394.17C1392.18 771.203 1390.65 773.265 1390.65 775.719V784.85C1390.65 787.304 1392.26 789.366 1394.17 789.366Z" fill="white"/>
        <path d="M1425.93 789.366H1445.4C1447.39 789.366 1448.92 787.304 1448.92 784.85V775.719C1448.92 773.167 1447.31 771.203 1445.4 771.203H1425.93C1423.95 771.203 1422.42 773.265 1422.42 775.719V784.85C1422.34 787.304 1423.95 789.366 1425.93 789.366Z" fill="white"/>
        <path d="M1394.17 836.885H1413.64C1415.62 836.885 1417.15 834.823 1417.15 832.369V823.238C1417.15 820.686 1415.55 818.722 1413.64 818.722H1394.17C1392.18 818.722 1390.65 820.784 1390.65 823.238V832.369C1390.65 834.823 1392.26 836.885 1394.17 836.885Z" fill="white"/>
        <path d="M1425.93 836.885H1445.4C1447.39 836.885 1448.92 834.823 1448.92 832.369V823.238C1448.92 820.686 1447.31 818.722 1445.4 818.722H1425.93C1423.95 818.722 1422.42 820.784 1422.42 823.238V832.369C1422.34 834.823 1423.95 836.885 1425.93 836.885Z" fill="white"/>
        <path d="M1394.17 884.405H1413.64C1415.62 884.405 1417.15 882.343 1417.15 879.888V870.757C1417.15 868.205 1415.55 866.241 1413.64 866.241H1394.17C1392.18 866.241 1390.65 868.303 1390.65 870.757V879.888C1390.65 882.343 1392.26 884.405 1394.17 884.405Z" fill="white"/>
        <path d="M1425.93 884.405H1445.4C1447.39 884.405 1448.92 882.343 1448.92 879.888V870.757C1448.92 868.205 1447.31 866.241 1445.4 866.241H1425.93C1423.95 866.241 1422.42 868.303 1422.42 870.757V879.888C1422.34 882.343 1423.95 884.405 1425.93 884.405Z" fill="white"/>
        <path d="M1394.17 931.924H1413.64C1415.62 931.924 1417.15 929.862 1417.15 927.407V918.277C1417.15 915.724 1415.55 913.76 1413.64 913.76H1394.17C1392.18 913.76 1390.65 915.822 1390.65 918.277V927.407C1390.65 929.96 1392.26 931.924 1394.17 931.924Z" fill="white"/>
        <path d="M1425.93 931.924H1445.4C1447.39 931.924 1448.92 929.862 1448.92 927.407V918.277C1448.92 915.724 1447.31 913.76 1445.4 913.76H1425.93C1423.95 913.76 1422.42 915.822 1422.42 918.277V927.407C1422.34 929.96 1423.95 931.924 1425.93 931.924Z" fill="white"/>
        <path d="M1394.17 979.541H1413.64C1415.62 979.541 1417.15 977.479 1417.15 975.025V965.894C1417.15 963.341 1415.55 961.378 1413.64 961.378H1394.17C1392.18 961.378 1390.65 963.439 1390.65 965.894V975.025C1390.65 977.479 1392.26 979.541 1394.17 979.541Z" fill="white"/>
        <path d="M1425.93 979.541H1445.4C1447.39 979.541 1448.92 977.479 1448.92 975.025V965.894C1448.92 963.341 1447.31 961.378 1445.4 961.378H1425.93C1423.95 961.378 1422.42 963.439 1422.42 965.894V975.025C1422.34 977.479 1423.95 979.541 1425.93 979.541Z" fill="white"/>
        <path d="M1394.17 1027.06H1413.64C1415.62 1027.06 1417.15 1025 1417.15 1022.54V1013.41C1417.15 1010.86 1415.55 1008.9 1413.64 1008.9H1394.17C1392.18 1008.9 1390.65 1010.96 1390.65 1013.41V1022.54C1390.65 1025 1392.26 1027.06 1394.17 1027.06Z" fill="white"/>
        <path d="M1425.93 1027.06H1445.4C1447.39 1027.06 1448.92 1025 1448.92 1022.54V1013.41C1448.92 1010.86 1447.31 1008.9 1445.4 1008.9H1425.93C1423.95 1008.9 1422.42 1010.96 1422.42 1013.41V1022.54C1422.34 1025 1423.95 1027.06 1425.93 1027.06Z" fill="white"/>
        <path d="M1394.17 1074.58H1413.64C1415.62 1074.58 1417.15 1072.52 1417.15 1070.06V1060.93C1417.15 1058.38 1415.55 1056.42 1413.64 1056.42H1394.17C1392.18 1056.42 1390.65 1058.48 1390.65 1060.93V1070.06C1390.65 1072.52 1392.26 1074.58 1394.17 1074.58Z" fill="white"/>
        <path d="M1425.93 1074.58H1445.4C1447.39 1074.58 1448.92 1072.52 1448.92 1070.06V1060.93C1448.92 1058.38 1447.31 1056.42 1445.4 1056.42H1425.93C1423.95 1056.42 1422.42 1058.48 1422.42 1060.93V1070.06C1422.34 1072.52 1423.95 1074.58 1425.93 1074.58Z" fill="white"/>
        <path d="M1394.17 1122.1H1413.64C1415.62 1122.1 1417.15 1120.04 1417.15 1117.58V1108.45C1417.15 1105.9 1415.55 1103.93 1413.64 1103.93H1394.17C1392.18 1103.93 1390.65 1106 1390.65 1108.45V1117.58C1390.65 1120.13 1392.26 1122.1 1394.17 1122.1Z" fill="white"/>
        <path d="M1425.93 1122.1H1445.4C1447.39 1122.1 1448.92 1120.04 1448.92 1117.58V1108.45C1448.92 1105.9 1447.31 1103.93 1445.4 1103.93H1425.93C1423.95 1103.93 1422.42 1106 1422.42 1108.45V1117.58C1422.34 1120.13 1423.95 1122.1 1425.93 1122.1Z" fill="white"/>
        <path d="M1394.17 1169.72H1413.64C1415.62 1169.72 1417.15 1167.65 1417.15 1165.2V1156.07C1417.15 1153.52 1415.55 1151.55 1413.64 1151.55H1394.17C1392.18 1151.55 1390.65 1153.61 1390.65 1156.07V1165.2C1390.65 1167.65 1392.26 1169.72 1394.17 1169.72Z" fill="white"/>
        <path d="M1425.93 1169.72H1445.4C1447.39 1169.72 1448.92 1167.65 1448.92 1165.2V1156.07C1448.92 1153.52 1447.31 1151.55 1445.4 1151.55H1425.93C1423.95 1151.55 1422.42 1153.61 1422.42 1156.07V1165.2C1422.34 1167.65 1423.95 1169.72 1425.93 1169.72Z" fill="white"/>
        <path d="M1394.17 1217.23H1413.64C1415.62 1217.23 1417.15 1215.17 1417.15 1212.72V1203.59C1417.15 1201.03 1415.55 1199.07 1413.64 1199.07H1394.17C1392.18 1199.07 1390.65 1201.13 1390.65 1203.59V1212.72C1390.65 1215.17 1392.26 1217.23 1394.17 1217.23Z" fill="white"/>
        <path d="M1425.93 1217.23H1445.4C1447.39 1217.23 1448.92 1215.17 1448.92 1212.72V1203.59C1448.92 1201.03 1447.31 1199.07 1445.4 1199.07H1425.93C1423.95 1199.07 1422.42 1201.13 1422.42 1203.59V1212.72C1422.34 1215.17 1423.95 1217.23 1425.93 1217.23Z" fill="white"/>
        <path d="M1394.17 1264.75H1413.64C1415.62 1264.75 1417.15 1262.69 1417.15 1260.24V1251.11C1417.15 1248.55 1415.55 1246.59 1413.64 1246.59H1394.17C1392.18 1246.59 1390.65 1248.65 1390.65 1251.11V1260.24C1390.65 1262.69 1392.26 1264.75 1394.17 1264.75Z" fill="white"/>
        <path d="M1425.93 1264.75H1445.4C1447.39 1264.75 1448.92 1262.69 1448.92 1260.24V1251.11C1448.92 1248.55 1447.31 1246.59 1445.4 1246.59H1425.93C1423.95 1246.59 1422.42 1248.65 1422.42 1251.11V1260.24C1422.34 1262.69 1423.95 1264.75 1425.93 1264.75Z" fill="white"/>
        <path d="M1394.17 1312.27H1413.64C1415.62 1312.27 1417.15 1310.21 1417.15 1307.76V1298.63C1417.15 1296.07 1415.55 1294.11 1413.64 1294.11H1394.17C1392.18 1294.11 1390.65 1296.17 1390.65 1298.63V1307.76C1390.65 1310.31 1392.26 1312.27 1394.17 1312.27Z" fill="white"/>
        <path d="M1425.93 1312.27H1445.4C1447.39 1312.27 1448.92 1310.21 1448.92 1307.76V1298.63C1448.92 1296.07 1447.31 1294.11 1445.4 1294.11H1425.93C1423.95 1294.11 1422.42 1296.17 1422.42 1298.63V1307.76C1422.34 1310.31 1423.95 1312.27 1425.93 1312.27Z" fill="white"/>
        <path d="M1394.17 1359.79H1413.64C1415.62 1359.79 1417.15 1357.73 1417.15 1355.28V1346.14C1417.15 1343.59 1415.55 1341.63 1413.64 1341.63H1394.17C1392.18 1341.63 1390.65 1343.69 1390.65 1346.14V1355.28C1390.65 1357.83 1392.26 1359.79 1394.17 1359.79Z" fill="white"/>
        <path d="M1425.93 1359.79H1445.4C1447.39 1359.79 1448.92 1357.73 1448.92 1355.28V1346.14C1448.92 1343.59 1447.31 1341.63 1445.4 1341.63H1425.93C1423.95 1341.63 1422.42 1343.69 1422.42 1346.14V1355.28C1422.34 1357.83 1423.95 1359.79 1425.93 1359.79Z" fill="white"/>
    </g>
</svg>
