<svg width="97" height="38" viewBox="0 0 97 38" fill="none" xmlns="http://www.w3.org/2000/svg">
<path d="M6.02994 13.136C7.54894 13.136 8.81994 11.865 8.81994 10.346C8.81994 8.827 7.54894 7.556 6.02994 7.556C4.51094 7.556 3.23994 8.827 3.23994 10.346C3.23994 11.865 4.51094 13.136 6.02994 13.136ZM3.70494 30H8.35494V14.5H3.70494V30ZM19.5077 30.434C24.2197 30.434 27.5677 27.954 27.5677 23.769C27.5677 19.181 23.8787 18.034 20.5927 17.042C17.2137 16.019 16.6867 15.337 16.6867 14.345C16.6867 13.477 17.4617 12.702 19.0117 12.702C20.9957 12.702 22.0187 13.663 22.7627 15.213L26.9477 12.764C25.3667 9.571 22.5767 7.866 19.0117 7.866C15.2607 7.866 11.7267 10.284 11.7267 14.469C11.7267 18.623 14.8887 20.173 18.1127 21.072C21.3677 21.971 22.6077 22.498 22.6077 23.831C22.6077 24.668 22.0187 25.598 19.6627 25.598C17.2137 25.598 15.8807 24.389 15.1057 22.591L10.8277 25.071C12.0367 28.264 14.9507 30.434 19.5077 30.434ZM34.4996 24.11H45.5046C45.6286 23.521 45.6906 22.901 45.6906 22.25C45.6906 17.569 42.3426 14.066 37.8166 14.066C32.9186 14.066 29.5706 17.631 29.5706 22.25C29.5706 26.869 32.8566 30.434 38.1576 30.434C41.1026 30.434 43.3966 29.349 44.9156 27.241L41.1956 25.102C40.5756 25.784 39.4906 26.28 38.2196 26.28C36.5146 26.28 35.0886 25.722 34.4996 24.11ZM34.4066 20.638C34.8406 19.057 36.0186 18.189 37.7856 18.189C39.1806 18.189 40.5756 18.84 41.0716 20.638H34.4066ZM57.411 14.066C55.365 14.066 53.815 14.81 52.978 15.957V14.5H48.328V30H52.978V21.537C52.978 19.336 54.156 18.344 55.861 18.344C57.349 18.344 58.558 19.243 58.558 21.165V30H63.208V20.483C63.208 16.298 60.542 14.066 57.411 14.066ZM70.8032 19.026C70.8032 18.468 71.2992 18.158 72.1052 18.158C73.1282 18.158 73.7482 18.716 74.1822 19.522L78.1502 17.383C76.8482 15.182 74.6162 14.066 72.1052 14.066C68.8812 14.066 66.0292 15.771 66.0292 19.15C66.0292 24.513 73.6552 23.614 73.6552 25.319C73.6552 25.939 73.0972 26.28 71.9812 26.28C70.6172 26.28 69.7492 25.629 69.3462 24.451L65.3162 26.745C66.5252 29.256 68.8812 30.434 71.9812 30.434C75.3292 30.434 78.4292 28.915 78.4292 25.35C78.4292 19.615 70.8032 20.793 70.8032 19.026ZM84.7535 24.11H95.7585C95.8825 23.521 95.9445 22.901 95.9445 22.25C95.9445 17.569 92.5965 14.066 88.0705 14.066C83.1725 14.066 79.8245 17.631 79.8245 22.25C79.8245 26.869 83.1105 30.434 88.4115 30.434C91.3565 30.434 93.6505 29.349 95.1695 27.241L91.4495 25.102C90.8295 25.784 89.7445 26.28 88.4735 26.28C86.7685 26.28 85.3425 25.722 84.7535 24.11ZM84.6605 20.638C85.0945 19.057 86.2725 18.189 88.0395 18.189C89.4345 18.189 90.8295 18.84 91.3255 20.638H84.6605Z" fill="#3A407C"/>
<g clip-path="url(#clip0)">
<rect width="10.1221" height="8.70481" transform="translate(3.40125 5) rotate(22.9998)" fill="white"/>
<path d="M9.85582 12.4926C9.98793 10.2647 8.36971 8.44675 6.23977 8.4333C4.10984 8.41985 2.27509 10.2146 2.14298 12.4425C2.13739 12.5276 2.13611 12.6145 2.13679 12.6967L9.83708 12.7524C9.84464 12.6627 9.85454 12.5795 9.85582 12.4926Z" fill="#FCB500"/>
<path d="M8.16924 12.6565C8.17914 12.5732 8.18904 12.49 8.19229 12.3985C8.30081 10.5376 7.1898 8.96227 5.57696 8.4853C5.79019 8.45014 6.01242 8.42972 6.23541 8.43148C8.36535 8.44493 9.98787 10.2647 9.8538 12.4973C9.84821 12.5823 9.84262 12.6674 9.83075 12.7552L2.13673 12.6967C2.13363 12.6681 8.16924 12.6565 8.16924 12.6565Z" fill="#FCC332"/>
<path d="M5.16225 13.0322C7.72326 13.0483 9.81223 12.9187 9.82304 12.7375C9.83385 12.5563 7.7668 12.3947 5.20147 12.3768" fill="#FC9700"/>
</g>
<defs>
<clipPath id="clip0">
<rect width="10.1221" height="8.70481" fill="white" transform="translate(3.40125 5) rotate(22.9998)"/>
</clipPath>
</defs>
</svg>
